<mxfile host="65bd71144e">
    <diagram id="VBs-mYfxKyEuPiUmWfvE" name="Page-1">
        <mxGraphModel dx="1651" dy="481" grid="1" gridSize="10" guides="1" tooltips="1" connect="1" arrows="1" fold="1" page="1" pageScale="1" pageWidth="827" pageHeight="1169" math="0" shadow="0">
            <root>
                <mxCell id="0"/>
                <mxCell id="1" parent="0"/>
                <mxCell id="46" value="" style="rounded=0;whiteSpace=wrap;html=1;fillColor=#9933FF;strokeColor=#4C0099;" vertex="1" parent="1">
                    <mxGeometry x="160" y="400" width="100" height="40" as="geometry"/>
                </mxCell>
                <mxCell id="3" value="latest" style="text;html=1;strokeColor=none;fillColor=none;align=center;verticalAlign=middle;whiteSpace=wrap;rounded=0;" vertex="1" parent="1">
                    <mxGeometry x="180" y="540" width="60" height="30" as="geometry"/>
                </mxCell>
                <mxCell id="4" value="" style="rounded=0;whiteSpace=wrap;html=1;" vertex="1" parent="1">
                    <mxGeometry x="160" y="470" width="100" height="30" as="geometry"/>
                </mxCell>
                <mxCell id="5" value="" style="rounded=0;whiteSpace=wrap;html=1;" vertex="1" parent="1">
                    <mxGeometry x="160" y="460" width="100" height="10" as="geometry"/>
                </mxCell>
                <mxCell id="15" value="" style="edgeStyle=orthogonalEdgeStyle;html=1;entryX=1;entryY=0.5;entryDx=0;entryDy=0;strokeColor=#4C0099;endArrow=open;endFill=0;curved=1;" edge="1" parent="1" source="6" target="17">
                    <mxGeometry x="0.7447" relative="1" as="geometry">
                        <mxPoint x="430" y="420" as="targetPoint"/>
                        <mxPoint as="offset"/>
                    </mxGeometry>
                </mxCell>
                <mxCell id="6" value="" style="rounded=0;whiteSpace=wrap;html=1;fillColor=#9933FF;strokeColor=#4C0099;" vertex="1" parent="1">
                    <mxGeometry x="450" y="430" width="100" height="10" as="geometry"/>
                </mxCell>
                <mxCell id="14" value="cherry pick" style="edgeStyle=orthogonalEdgeStyle;html=1;entryX=1;entryY=0.5;entryDx=0;entryDy=0;strokeColor=#4C0099;endArrow=open;endFill=0;exitX=0;exitY=0.5;exitDx=0;exitDy=0;curved=1;" edge="1" parent="1" source="7" target="18">
                    <mxGeometry x="0.7021" relative="1" as="geometry">
                        <mxPoint x="430" y="420" as="targetPoint"/>
                        <mxPoint as="offset"/>
                    </mxGeometry>
                </mxCell>
                <mxCell id="7" value="" style="rounded=0;whiteSpace=wrap;html=1;fillColor=#9933FF;strokeColor=#4C0099;" vertex="1" parent="1">
                    <mxGeometry x="450" y="410" width="100" height="20" as="geometry"/>
                </mxCell>
                <mxCell id="8" value="" style="rounded=0;whiteSpace=wrap;html=1;fillColor=#9933FF;strokeColor=#4C0099;" vertex="1" parent="1">
                    <mxGeometry x="450" y="400" width="100" height="10" as="geometry"/>
                </mxCell>
                <mxCell id="12" value="" style="edgeStyle=orthogonalEdgeStyle;html=1;entryX=1;entryY=0.5;entryDx=0;entryDy=0;exitX=0;exitY=0.5;exitDx=0;exitDy=0;strokeColor=#4C0099;endArrow=open;endFill=0;curved=1;" edge="1" parent="1" source="9" target="19">
                    <mxGeometry relative="1" as="geometry">
                        <mxPoint x="430" y="420" as="targetPoint"/>
                    </mxGeometry>
                </mxCell>
                <mxCell id="9" value="" style="rounded=0;whiteSpace=wrap;html=1;fillColor=#9933FF;strokeColor=#4C0099;" vertex="1" parent="1">
                    <mxGeometry x="450" y="390" width="100" height="10" as="geometry"/>
                </mxCell>
                <mxCell id="10" value="feature" style="text;html=1;strokeColor=none;fillColor=none;align=center;verticalAlign=middle;whiteSpace=wrap;rounded=0;" vertex="1" parent="1">
                    <mxGeometry x="470" y="540" width="60" height="30" as="geometry"/>
                </mxCell>
                <mxCell id="17" value="" style="rounded=0;whiteSpace=wrap;html=1;fillColor=#9933FF;strokeColor=#4C0099;" vertex="1" parent="1">
                    <mxGeometry x="-50" y="430" width="100" height="10" as="geometry"/>
                </mxCell>
                <mxCell id="22" value="squash" style="edgeStyle=orthogonalEdgeStyle;curved=1;html=1;entryX=1;entryY=0.5;entryDx=0;entryDy=0;strokeColor=#4C0099;endArrow=open;endFill=0;" edge="1" parent="1" source="18" target="21">
                    <mxGeometry relative="1" as="geometry"/>
                </mxCell>
                <mxCell id="18" value="" style="rounded=0;whiteSpace=wrap;html=1;fillColor=#9933FF;strokeColor=#4C0099;" vertex="1" parent="1">
                    <mxGeometry x="-50" y="410" width="100" height="20" as="geometry"/>
                </mxCell>
                <mxCell id="19" value="" style="rounded=0;whiteSpace=wrap;html=1;fillColor=#9933FF;strokeColor=#4C0099;" vertex="1" parent="1">
                    <mxGeometry x="-50" y="400" width="100" height="10" as="geometry"/>
                </mxCell>
                <mxCell id="45" value="merge" style="edgeStyle=orthogonalEdgeStyle;curved=1;html=1;entryX=1;entryY=0.5;entryDx=0;entryDy=0;strokeColor=#000000;endArrow=open;endFill=0;" edge="1" parent="1" source="21" target="38">
                    <mxGeometry relative="1" as="geometry"/>
                </mxCell>
                <mxCell id="21" value="" style="rounded=0;whiteSpace=wrap;html=1;fillColor=#9933FF;strokeColor=#4C0099;" vertex="1" parent="1">
                    <mxGeometry x="-240" y="400" width="100" height="40" as="geometry"/>
                </mxCell>
                <mxCell id="25" value="&lt;i&gt;commit&lt;/i&gt;" style="rounded=0;whiteSpace=wrap;html=1;" vertex="1" parent="1">
                    <mxGeometry x="160" y="500" width="100" height="40" as="geometry"/>
                </mxCell>
                <mxCell id="26" value="" style="rounded=0;whiteSpace=wrap;html=1;" vertex="1" parent="1">
                    <mxGeometry x="160" y="440" width="100" height="20" as="geometry"/>
                </mxCell>
                <mxCell id="27" value="" style="rounded=0;whiteSpace=wrap;html=1;" vertex="1" parent="1">
                    <mxGeometry x="450" y="470" width="100" height="30" as="geometry"/>
                </mxCell>
                <mxCell id="28" value="" style="rounded=0;whiteSpace=wrap;html=1;" vertex="1" parent="1">
                    <mxGeometry x="450" y="460" width="100" height="10" as="geometry"/>
                </mxCell>
                <mxCell id="29" value="" style="rounded=0;whiteSpace=wrap;html=1;" vertex="1" parent="1">
                    <mxGeometry x="450" y="500" width="100" height="40" as="geometry"/>
                </mxCell>
                <mxCell id="31" value="checkout" style="edgeStyle=orthogonalEdgeStyle;curved=1;html=1;entryX=1;entryY=0.5;entryDx=0;entryDy=0;strokeColor=#000000;endArrow=open;endFill=0;" edge="1" parent="1" source="30" target="26">
                    <mxGeometry relative="1" as="geometry"/>
                </mxCell>
                <mxCell id="30" value="" style="rounded=0;whiteSpace=wrap;html=1;" vertex="1" parent="1">
                    <mxGeometry x="450" y="440" width="100" height="20" as="geometry"/>
                </mxCell>
                <mxCell id="32" value="release" style="text;html=1;strokeColor=none;fillColor=none;align=center;verticalAlign=middle;whiteSpace=wrap;rounded=0;" vertex="1" parent="1">
                    <mxGeometry x="-220" y="540" width="60" height="30" as="geometry"/>
                </mxCell>
                <mxCell id="33" value="" style="rounded=0;whiteSpace=wrap;html=1;" vertex="1" parent="1">
                    <mxGeometry x="-240" y="470" width="100" height="30" as="geometry"/>
                </mxCell>
                <mxCell id="34" value="" style="rounded=0;whiteSpace=wrap;html=1;" vertex="1" parent="1">
                    <mxGeometry x="-240" y="460" width="100" height="10" as="geometry"/>
                </mxCell>
                <mxCell id="35" value="" style="rounded=0;whiteSpace=wrap;html=1;" vertex="1" parent="1">
                    <mxGeometry x="-240" y="500" width="100" height="40" as="geometry"/>
                </mxCell>
                <mxCell id="36" value="checkout" style="edgeStyle=orthogonalEdgeStyle;curved=1;html=1;entryX=0;entryY=0.5;entryDx=0;entryDy=0;strokeColor=#000000;endArrow=open;endFill=0;" edge="1" parent="1" source="37" target="26">
                    <mxGeometry relative="1" as="geometry">
                        <mxPoint x="-640" y="450" as="targetPoint"/>
                    </mxGeometry>
                </mxCell>
                <mxCell id="37" value="" style="rounded=0;whiteSpace=wrap;html=1;" vertex="1" parent="1">
                    <mxGeometry x="-240" y="440" width="100" height="20" as="geometry"/>
                </mxCell>
                <mxCell id="48" value="merge" style="edgeStyle=orthogonalEdgeStyle;curved=1;html=1;entryX=0.5;entryY=0;entryDx=0;entryDy=0;strokeColor=#000000;endArrow=open;endFill=0;exitX=0.5;exitY=0;exitDx=0;exitDy=0;" edge="1" parent="1" source="38" target="46">
                    <mxGeometry relative="1" as="geometry">
                        <Array as="points">
                            <mxPoint x="-440" y="340"/>
                            <mxPoint x="210" y="340"/>
                        </Array>
                    </mxGeometry>
                </mxCell>
                <mxCell id="38" value="" style="rounded=0;whiteSpace=wrap;html=1;fillColor=#9933FF;strokeColor=#4C0099;" vertex="1" parent="1">
                    <mxGeometry x="-490" y="400" width="100" height="40" as="geometry"/>
                </mxCell>
                <mxCell id="39" value="dev/test/validation" style="text;html=1;strokeColor=none;fillColor=none;align=center;verticalAlign=middle;whiteSpace=wrap;rounded=0;" vertex="1" parent="1">
                    <mxGeometry x="-470" y="540" width="60" height="30" as="geometry"/>
                </mxCell>
                <mxCell id="40" value="" style="rounded=0;whiteSpace=wrap;html=1;" vertex="1" parent="1">
                    <mxGeometry x="-490" y="470" width="100" height="30" as="geometry"/>
                </mxCell>
                <mxCell id="41" value="" style="rounded=0;whiteSpace=wrap;html=1;" vertex="1" parent="1">
                    <mxGeometry x="-490" y="460" width="100" height="10" as="geometry"/>
                </mxCell>
                <mxCell id="42" value="" style="rounded=0;whiteSpace=wrap;html=1;" vertex="1" parent="1">
                    <mxGeometry x="-490" y="500" width="100" height="40" as="geometry"/>
                </mxCell>
                <mxCell id="44" value="checkout" style="edgeStyle=orthogonalEdgeStyle;curved=1;html=1;strokeColor=#000000;endArrow=open;endFill=0;" edge="1" parent="1" source="43">
                    <mxGeometry relative="1" as="geometry">
                        <mxPoint x="160" y="450" as="targetPoint"/>
                        <Array as="points">
                            <mxPoint x="-320" y="450"/>
                            <mxPoint x="-320" y="590"/>
                            <mxPoint x="70" y="590"/>
                            <mxPoint x="70" y="450"/>
                        </Array>
                    </mxGeometry>
                </mxCell>
                <mxCell id="43" value="" style="rounded=0;whiteSpace=wrap;html=1;" vertex="1" parent="1">
                    <mxGeometry x="-490" y="440" width="100" height="20" as="geometry"/>
                </mxCell>
                <mxCell id="49" value="" style="shape=curlyBracket;whiteSpace=wrap;html=1;rounded=1;flipH=1;labelPosition=right;verticalLabelPosition=middle;align=left;verticalAlign=middle;strokeColor=#4C0099;fillColor=none;rotation=-180;" vertex="1" parent="1">
                    <mxGeometry x="130" y="495" width="20" height="40" as="geometry"/>
                </mxCell>
                <mxCell id="50" value="size (Kb)" style="text;html=1;strokeColor=none;fillColor=none;align=center;verticalAlign=middle;whiteSpace=wrap;rounded=0;" vertex="1" parent="1">
                    <mxGeometry x="80" y="500" width="50" height="30" as="geometry"/>
                </mxCell>
                <mxCell id="51" value="" style="shape=curlyBracket;whiteSpace=wrap;html=1;rounded=1;flipH=1;labelPosition=right;verticalLabelPosition=middle;align=left;verticalAlign=middle;strokeColor=#4C0099;fillColor=none;" vertex="1" parent="1">
                    <mxGeometry x="560" y="390" width="20" height="150" as="geometry"/>
                </mxCell>
                <mxCell id="52" value="feature history" style="text;html=1;strokeColor=none;fillColor=none;align=center;verticalAlign=middle;whiteSpace=wrap;rounded=0;" vertex="1" parent="1">
                    <mxGeometry x="580" y="450" width="80" height="30" as="geometry"/>
                </mxCell>
                <mxCell id="53" value="" style="shape=curlyBracket;whiteSpace=wrap;html=1;rounded=1;flipH=1;labelPosition=right;verticalLabelPosition=middle;align=left;verticalAlign=middle;strokeColor=#4C0099;fillColor=none;" vertex="1" parent="1">
                    <mxGeometry x="270" y="400" width="20" height="140" as="geometry"/>
                </mxCell>
                <mxCell id="54" value="project history" style="text;html=1;strokeColor=none;fillColor=none;align=center;verticalAlign=middle;whiteSpace=wrap;rounded=0;" vertex="1" parent="1">
                    <mxGeometry x="290" y="455" width="80" height="30" as="geometry"/>
                </mxCell>
                <mxCell id="55" value="" style="shape=curlyBracket;whiteSpace=wrap;html=1;rounded=1;flipH=1;labelPosition=right;verticalLabelPosition=middle;align=left;verticalAlign=middle;strokeColor=#4C0099;fillColor=none;" vertex="1" parent="1">
                    <mxGeometry x="-130" y="400" width="20" height="140" as="geometry"/>
                </mxCell>
                <mxCell id="56" value="project history" style="text;html=1;strokeColor=none;fillColor=none;align=center;verticalAlign=middle;whiteSpace=wrap;rounded=0;" vertex="1" parent="1">
                    <mxGeometry x="-110" y="455" width="80" height="30" as="geometry"/>
                </mxCell>
                <mxCell id="57" value="" style="shape=curlyBracket;whiteSpace=wrap;html=1;rounded=1;flipH=1;labelPosition=right;verticalLabelPosition=middle;align=left;verticalAlign=middle;strokeColor=#4C0099;fillColor=none;rotation=-180;" vertex="1" parent="1">
                    <mxGeometry x="-520" y="400" width="20" height="140" as="geometry"/>
                </mxCell>
                <mxCell id="58" value="project history" style="text;html=1;strokeColor=none;fillColor=none;align=center;verticalAlign=middle;whiteSpace=wrap;rounded=0;" vertex="1" parent="1">
                    <mxGeometry x="-610" y="455" width="80" height="30" as="geometry"/>
                </mxCell>
            </root>
        </mxGraphModel>
    </diagram>
</mxfile>